<?xml version="1.0" encoding="iso-8859-1"?>
<!-- Uploaded to: SVG Repo, www.svgrepo.com, Generator: SVG Repo Mixer Tools -->
<svg height="800px" width="800px" version="1.1" id="Layer_1" xmlns="http://www.w3.org/2000/svg" xmlns:xlink="http://www.w3.org/1999/xlink" 
	 viewBox="0 0 504.32 504.32" xml:space="preserve">
<g transform="translate(1 1)">
	<path style="fill:#AE938D;" d="M229.4,331.8l55.467,55.467c-23.04,22.187-45.227,23.04-68.267,0L186.733,357.4l0,0l0,0
		l-42.667-42.667L114.2,284.867c-22.187-22.187-23.04-45.227,0-68.267l54.613,54.613l30.72,30.72L229.4,331.8z"/>
	<path style="fill:#FFD0A1;" d="M186.733,357.4l-91.307,91.307L52.76,406.041l0,0l91.307-91.307L186.733,357.4z M108.227,461.507
		c5.12,5.12,5.12,11.093,1.707,13.653l-19.627,19.627c-3.413,3.413-8.533,3.413-11.947,0L5.827,422.254
		c-3.413-3.413-3.413-8.533,0-11.947l19.627-19.627c3.413-3.413,8.533-3.413,11.947,0l15.36,14.507l0,0l42.667,42.667
		L108.227,461.507z"/>
	<path style="fill:#ECF4F7;" d="M498.2,3.267L199.533,301.934l0,0l-30.72-30.72l1.707-1.707L344.6,37.4L498.2,3.267z M498.2,3.267
		l-34.133,153.6L230.253,331.8l0,0l-29.867-29.867l0,0L498.2,3.267z"/>
</g>
<path style="fill:#51565F;" d="M85.333,503.467c-3.413,0-6.827-1.707-9.387-3.413L3.413,427.52C0.853,424.961,0,421.547,0,418.134
	c0-3.413,1.707-6.827,3.413-9.387L23.04,389.12c5.12-5.12,12.8-5.12,17.92,0l11.947,11.947l85.333-85.333l-27.307-27.307
	c-23.893-23.893-23.893-50.347,0-74.24c1.707-1.707,4.267-1.707,5.973,0l170.667,170.667c1.707,1.707,1.707,4.267,0,5.973
	c-23.893,23.893-50.347,23.893-74.24,0l-26.453-26.453l-85.333,85.333l10.24,10.24c6.827,6.827,6.827,15.36,1.707,20.48
	l-19.627,19.627C92.16,501.76,88.747,503.467,85.333,503.467z M32.427,394.241c-0.853,0-2.56,0-2.56,0.853L10.24,414.72
	c-0.853,0.853-0.853,1.707-0.853,3.413s0.853,2.56,0.853,3.413l72.533,72.533c1.707,1.707,4.267,1.707,5.973,0l19.627-19.627
	c1.707-1.707,0.853-5.12-1.707-7.68l-12.8-12.8l0,0l0,0L74.24,434.347c-1.707-1.707-1.707-4.267,0-5.973
	c1.707-1.707,4.267-1.707,5.973,0l16.213,16.213l88.747-88.747c1.707-1.707,4.267-1.707,5.973,0l29.867,29.867
	c20.48,20.48,39.253,21.333,58.88,2.56L115.2,223.574c-17.92,19.627-17.067,39.253,2.56,58.88l51.2,51.2
	c1.707,1.707,1.707,4.267,0,5.973c-1.707,1.707-4.267,1.707-5.973,0l-18.773-18.773L55.467,409.6c-1.707,1.707-4.267,1.707-5.973,0
	l-14.507-14.507C34.987,394.241,34.133,394.241,32.427,394.241z M260.267,315.734c-1.707,0-2.56-0.853-3.413-1.707
	c-1.707-1.707-0.853-4.267,0.853-5.973l203.947-152.747l30.72-137.387L229.547,280.747c-1.707,1.707-4.267,1.707-5.973,0
	c-1.707-1.707-1.707-4.267,0-5.973L486.4,11.947l-137.387,30.72L196.267,246.613c-1.707,1.707-4.267,2.56-5.973,0.853
	c-1.707-1.707-2.56-4.267-0.853-5.973l153.6-204.8c0.853-0.853,1.707-1.707,2.56-1.707L499.2,0.853h0.853l0,0l0,0c0,0,0,0,0.853,0
	l0,0l0,0c0.853,0,1.707,0.853,2.56,0.853c0.853,0.853,0.853,1.707,0.853,2.56l0,0l0,0c0,0,0,0,0,0.853l0,0l0,0v0.853l-34.133,153.6
	c0,0.853-0.853,1.707-1.707,2.56l-204.8,153.6C261.973,315.734,261.12,315.734,260.267,315.734z"/>
</svg>